<svg xmlns="http://www.w3.org/2000/svg" xmlns:xlink="http://www.w3.org/1999/xlink" style="display: none;">
  <symbol viewBox="0 0 18 18" fill="none" id="svg-sprite-cross">
    <path d="M1.70711 0.292893C1.31658 -0.0976311 0.683417 -0.0976311 0.292893 0.292893C-0.0976311 0.683417 -0.0976311 1.31658 0.292893 1.70711L1.70711 0.292893ZM16.2929 17.7071C16.6834 18.0976 17.3166 18.0976 17.7071 17.7071C18.0976 17.3166 18.0976 16.6834 17.7071 16.2929L16.2929 17.7071ZM0.292893 1.70711L16.2929 17.7071L17.7071 16.2929L1.70711 0.292893L0.292893 1.70711Z" fill="#BDBDBD"/>
    <path d="M17.7071 1.70711C18.0976 1.31658 18.0976 0.683417 17.7071 0.292893C17.3166 -0.0976311 16.6834 -0.0976311 16.2929 0.292893L17.7071 1.70711ZM0.292893 16.2929C-0.0976308 16.6834 -0.0976309 17.3166 0.292893 17.7071C0.683417 18.0976 1.31658 18.0976 1.70711 17.7071L0.292893 16.2929ZM16.2929 0.292893L0.292893 16.2929L1.70711 17.7071L17.7071 1.70711L16.2929 0.292893Z" fill="#BDBDBD"/>
  </symbol>
  <symbol viewBox="0 0 23 12" fill="none" id="svg-sprite-toggle-arrow">
    <path d="M21 2L11.5 10L2 2" stroke="#E91E63" stroke-width="3" stroke-miterlimit="10" stroke-linecap="round"/>
  </symbol>
  <symbol width="48" height="46" viewBox="0 0 48 46" fill="none" id="svg-sprite-download">
    <path d="M46.6248 22.4448C45.8608 22.4448 45.2496 23.056 45.2496 23.82V36.3294C45.2496 39.7318 42.4788 42.4924 39.0866 42.4924H8.91341C5.51104 42.4924 2.75042 39.7216 2.75042 36.3294V23.6163C2.75042 22.8523 2.13922 22.2411 1.37521 22.2411C0.611205 22.2411 0 22.8523 0 23.6163V36.3294C0 41.2496 4.0034 45.2428 8.91341 45.2428H39.0866C44.0068 45.2428 48 41.2394 48 36.3294V23.82C48 23.0662 47.3888 22.4448 46.6248 22.4448Z" fill="#00BFA5"/>
    <path d="M23.0321 34.3226C23.2969 34.5874 23.6535 34.73 23.9998 34.73C24.3461 34.73 24.7027 34.5976 24.9675 34.3226L33.7078 25.5823C34.2477 25.0424 34.2477 24.1766 33.7078 23.6367C33.1679 23.0968 32.302 23.0968 31.7621 23.6367L25.375 30.0339V2.13241C25.375 1.36841 24.7638 0.757202 23.9998 0.757202C23.2358 0.757202 22.6246 1.36841 22.6246 2.13241V30.0339L16.2273 23.6367C15.6874 23.0968 14.8215 23.0968 14.2816 23.6367C13.7417 24.1766 13.7417 25.0424 14.2816 25.5823L23.0321 34.3226Z" fill="#00BFA5"/>
  </symbol>
</svg>